<?xml version="1.0" encoding="utf-8"?>
<!-- Svg Vector Icons : http://www.onlinewebfonts.com/icon -->
<!DOCTYPE svg PUBLIC "-//W3C//DTD SVG 1.1//EN" "http://www.w3.org/Graphics/SVG/1.1/DTD/svg11.dtd">
<svg version="1.1" xmlns="http://www.w3.org/2000/svg" xmlns:xlink="http://www.w3.org/1999/xlink" x="0px" y="0px" viewBox="0 0 1000 1000" enable-background="new 0 0 1000 1000" xml:space="preserve">
<metadata> Svg Vector Icons : http://www.onlinewebfonts.com/icon </metadata>
<g><g><path d="M946.6,456c-0.6-1.3-1.4-2.2-2.2-3.1c4.4-6.5,1.9-17.7-7-21.4c-13.5-5.6-27.6-9.8-41.9-13.4c43.1-33.3,64.2-109.7,14.1-146.3c-6.4-4.7-45.8-20.2-45.2-27.3c1.3-13.2,1.6-32.3-5-44.8c-12.1-23.1-33.6-25.9-56.8-26.3c-12.6-61.3-63.1-103-129.4-70.6c-35.1,17.2-62.2-9.4-98.1,2.3c-27.7,9-34.1,43.3-37.4,68.5c0.1-11.3,0.2-22.6,0.1-33.9c0-6.5-4.2-11-10-13.2c-46.9-17.3-84.2-17.7-131,0.1c-5.2,2-10.6,6.7-9.9,13c4.8,43.4,9,86.8,13,130.3c-34.9-48.6-87.8-90.8-141.2-81.8c9.3-60.4-6.8-173.8-86.1-178.1C94.9,6,110.8,110.9,127.5,163.7c-19.8-2-40.3,2.2-60.3,2.6c-8.9,0.2-13.9,9.5-9.9,17.2c27.8,53.6,73.7,76.9,128.8,61.5c-9.4,21.9-11.5,47.3-7.9,70.2c7.9,49.5,43.2,89.2,82.1,118.6c-50.6,2.2-100.9,6.5-149.3,16.3c-1.4-2.4-4-4-7.8-3.2c-72.8,15.6-76.3,93.3-60.3,153.8c1.9,7,7.9,10.4,14.6,11.1c13.9,1.4,27.9,2.6,41.8,3.7c12.1,14,22.8,41.4,29.8,54.6c15.5,29.5,24.3,62.4,34.1,94.1c16.3,52.6,31,103.5,52.6,154.3c1,2.4,2.6,3.9,4.3,5.1c0.6,1.8,1.9,3.6,4,4.8c145,85.2,376.1,68.2,533.8,30.3c2.6-0.6,4.7-1.6,6.6-2.8c9,2.9,20.6-0.2,25.1-11.6c41.4-105,62-215.3,90.2-324C948.4,601.5,990.7,551.8,946.6,456z M537.9,180.6c2.1,4.1,9.9,4,11.4-1.3c12.2-43.6,50.8-64.9,93.2-39.4c3.4,2,8,2.1,11.5,0c52.4-32.4,120.5-31,123.2,47.3c0.3,7.7,6.2,13.9,14,14c40.4,0.4,46.3,26.8,42.6,62.2c-0.6,5.9,4.8,13,10.7,14c87.9,14.9,65.7,79.5,23.8,129.7c-1.2,1.5-2,3-2.5,4.6c-18.6-3.1-37.5-5.2-56.8-6.2c30.8-24.1,51.1-64.5,34.1-103c-17.7-40-56.2-45.6-91.3-30.5c-8.5-24.1-20.4-46.6-46.4-55.4c-23.3-7.8-45.3,11.9-61.4,31.1c-10.5-30.5-31.6-63.8-67.1-46.3c-18.8,9.2-31.6,24.7-39.6,42.7C537.5,223,537.7,201.8,537.9,180.6z M535.4,316.2c2.2-0.8,4-2.5,4.1-5.1c0.8-27.5,7.8-53.7,25.2-75.4c33.5-41.7,57,8.2,62.8,40.4c1.4,8.1,14.1,11.7,19.3,5.1c11.1-14.1,21.1-26,36.3-36.2c30.2-20.2,43.3,37.6,46.8,50.8c2.3,8.9,12.8,12.7,20.5,8.4c28-15.8,57.9-18.4,68,17.3c9.1,32.3-20.8,57.6-44.1,72.8c-4.4,2.9-6.2,6.8-6.5,10.7c-79.9,1.2-162.1,15.1-234.1,22.4c-0.6,0.1-1.1,0.3-1.6,0.5C533.3,390.6,534.4,353.4,535.4,316.2z M428,143.5c117.4-45.4,80.1,111.2,77.6,172.1c-2.9,74.3-5,148.7-5.4,223.1c-14.1-4.2-16.5-3.8-42.6-5.4c-5.5-0.3-9.4,1.8-11.9,5.1c-0.5-61.6-3.5-122.9-7.7-184.4C436.2,327.1,399,154.7,428,143.5z M194,230.7c-45.5,7.3-81.5-8.2-107.2-43.7c18.1-2.6,36.5-5.4,53.9,0.8c6.9,2.4,15.6-5.5,12.7-12.7c-12.8-31.1-45.1-139.6,19.2-141.5c66.3-2,63.8,114.5,64.8,153.8c0.1,2.5,1.1,4.5,2.5,6.2c-9.6,3.9-19.2,9.4-28.6,17.3C204.4,216.5,198.7,223.3,194,230.7z M227.9,232.9c22.2-22.4,55.5-22.4,82.7-10.1c46.3,20.9,70.2,66.7,95,108.1c3,33,6.1,65.9,9.4,98.8c-42.3,1.4-85.8,1.8-129.5,3.2c-0.3-1.6-1-3.1-2.5-4.4C230.3,386.2,166,295.5,227.9,232.9z M758.2,921.4c-3.2-1.1-6.7-1.7-10.6-1.1c-169.8,23.5-335.1,29.5-503.4-6.1c0.5-2.2,0.6-4.6-0.5-7.2c-26-63-35-132.5-59.6-196.6c-9.4-24.4-20.1-50.5-36.3-71.2c-9.3-11.8-16.9-17.4-25-22c216.1,13.9,431.5-8,647.4,11.2c31.2,2.8,62.8,1.9,91.3-3.5C820.3,721.3,789.5,821.4,758.2,921.4z M829.8,595.8c-60.1,2.3-120.7-9.3-180.4-14.5c-103.5-9-211.5,7.2-315.5,9.1c-60.8,1.1-121.6,0.1-182.3-2.3c-12.7-0.5-79.3,4.2-84.6-14.6c-10.9-39,1.2-73.5,27.4-100.2c0.5,0,0.9,0.2,1.5,0.2c105.3-8.2,219.5,13.6,322.3-13.4c3.9,36.8,8.3,73.5,13.5,110.1c1.2,8.4,14.3,6.1,14.4-1.9c0-3-0.1-5.9-0.1-8.9c2.6,3.3,6.4,5.6,11.8,5.7c17.7,2.6,35.5,5.3,53.2,7.9c9.4,2.6,18.7-4.7,18.8-14.3c0.3-39,1.2-77.9,2.3-116.9c0.6,0.2,1.2,0.5,2,0.5c128.1,10.8,259,10.5,387.5,15c-1.6,3-2.5,6.4-1.8,10C934.7,551.8,920.2,592.3,829.8,595.8z"/><path d="M746.3,647.3c-15.6,15.5-31.4,32-47.3,48.5c-17.4-14.8-36.1-28.3-54.8-41.9c-10.1-7.3-23.1,9.6-13.3,17.3c17.5,13.6,34.7,27.5,51.4,42c-21,21.6-42.5,43.1-65.1,63.2c-3-2.5-6-5.1-8.9-7.6c-18.6-16.5-37-33.1-55.5-49.7c4.5-3.6,9-7.2,13.6-10.6c8.1-6,0.8-19.6-8.1-13.9c-6.4,4.1-12.4,8.5-18.6,12.8c-18.8-16.9-37.6-33.7-56.7-50.4c-8.7-7.6-21.4,4.8-12.8,12.8c17.9,16.3,35.5,32.9,53.2,49.5c-24.2,18.4-47.3,38.2-70.1,58.3c-24.5-21.2-49.4-41.9-74.6-61.9c17.2-13.2,34.7-26,53.4-37.4c6.8-4.2,0.9-13.5-6.1-10.5c-22.1,9.6-42.3,22.4-61.1,36.9c-20.4-15.9-41-31.3-61.7-46.2c-1.3-1.8-3.1-3.2-5.3-3.8c-2.8-2-5.6-4.1-8.4-6.1c-5.9-4.1-13.3,5.5-7.7,9.9c0.5,0.4,1,0.8,1.5,1.2c-16.8,9.4-32.8,20.2-41.7,38c-4.3,8.7,8.2,16.3,13.1,7.7c9.6-16.8,27-25,44-32.9c17.3,14.3,34.2,29.1,50.8,44.5c-22.4,19-43.2,40.1-63.6,61.2c-8.5-7.4-17-14.8-25.3-22.4c-3.9-3.6-9.3,1.9-5.8,5.8c7.5,8.3,15.1,16.8,22.7,25.3c-1.7,1.8-3.5,3.6-5.2,5.4c-5.7,5.9,3.1,14.7,9,9c1.6-1.6,3.3-3.1,4.9-4.7c19.9,22.3,40.5,44.6,62.6,64.7c-8.8,5.8-17.7,11.5-27,16.7c-5.1,2.8-1.5,11.8,4,9.5c11.8-4.7,23.2-10.2,34.2-16.2c11.7,10,23.9,19.4,36.6,27.5c7.7,4.9,15.8-6.1,9.6-12.4c-8.8-9-18.1-17.6-27.4-26.2c23.7-14.7,45.9-32,67.5-50.1c16.5,15.8,33.1,31.5,50.1,46.5c-10,4.2-20.1,8.1-30.6,11.2c-6.7,2-3.9,11.6,2.8,10.3c13.6-2.6,26.9-6.4,40.1-11c21.8,18.6,44.2,36.4,67.8,52.4c9.4,6.3,19.3-7.6,11.8-15.3c-16.3-16.6-33.1-33-50.2-49.3c27.1-12.8,53.1-29.4,77.7-48.3c14.2,13.7,28.7,27.5,43.7,40.6c-3.1,4-6.3,8-9.1,12.3c-5.8,9.1,8,16.5,14.1,8.2c2.5-3.3,5.1-6.5,7.8-9.6c15,12.2,30.5,23.5,47,32.7c9.5,5.3,18.7-7,11.4-14.8c-12.2-13.2-25.6-25.6-39.4-37.6c14.8-14.4,29.9-28.4,40.6-46.3c5.2-8.7-7.8-19.4-14.4-11.1c-12.6,15.9-27,30.2-40.7,45.2c-14-11.7-28.3-23.1-42.3-34.7c23.1-19.3,44.8-40.4,65.1-61.9c12.6,11.7,24.8,23.6,36.3,36.4c7.6,8.4,22-2.6,15.7-12.1c-10.4-15.8-22.5-29.6-35.7-42.3c15.3-17.1,29.9-34.2,43.1-50.8C766.7,651.3,755,638.7,746.3,647.3z M366.7,848.8c-23.1-20.9-47-41.2-70.5-61.7c21.4-20.3,43.1-40.1,65.9-58.6c23.5,22.3,46.6,45.1,69.9,67.7C410.7,814.6,389.4,832.5,366.7,848.8z M525.5,842.7c-18.6-17.5-37.5-34.8-56.8-51.8c22.8-19.9,45.2-40.1,68.2-59.1c18.6,17.5,37.2,35.1,55.8,52.5c2.4,2.2,4.7,4.5,7.1,6.7C576.4,810.5,551.8,828.4,525.5,842.7z"/><path d="M262,289c-12.5,21-28.7,44.3-29.1,69.7c-0.1,7.5,11,7.3,11.5,0c1.8-22.5,19.2-43.3,28-63.6C275.5,288.1,266.1,282.1,262,289z"/><path d="M310.9,323.3c-27.7,17.2-51.9,38.5-51.7,73.5c0.1,10.4,15.4,10.2,16.1,0c1.7-26.7,23.4-45,43.6-59.8C326.8,331.1,319.7,317.8,310.9,323.3z"/><path d="M348.9,373.6c-13.8,11.2-31,19.1-46.7,27.3c-7.1,3.7-0.9,14.1,6.3,10.7c17.1-8.2,35.6-15.6,48.6-29.8C362.1,376.2,354.6,369,348.9,373.6z"/></g><g></g><g></g><g></g><g></g><g></g><g></g><g></g><g></g><g></g><g></g><g></g><g></g><g></g><g></g><g></g></g>
</svg>